<svg width="58" height="46" viewBox="0 0 58 46" fill="none" xmlns="http://www.w3.org/2000/svg">
<path d="M33.5409 35.8475H28.8802L28.6014 32.6807H24.9167L23.5025 35.8475H21.5706L27.4462 23.2H32.1666L33.5409 35.8475ZM25.5739 31.2267H28.462L28.0039 25.8092L25.5739 31.2267Z" fill="#11171A"/>
<path d="M57.0239 24.7137H53.8172L51.4471 35.8475H47.1449L49.5151 24.7137H46.3482L46.7067 23.2H57.3625L57.0239 24.7137Z" fill="#11171A"/>
<path fill-rule="evenodd" clip-rule="evenodd" d="M26.1322 0.565613L24.0039 4.24577L2.13089 42.0684L0 45.7531H4.2565H48.0078H52.2643L50.1334 42.0684L43.0699 29.8542C44.0642 29.5092 44.7783 29.0079 45.2124 28.3503C45.6506 27.6864 45.8697 26.9627 45.8697 26.1793C45.8697 25.5419 45.7502 25.0307 45.5111 24.6457C45.2721 24.2473 44.9468 23.9419 44.5352 23.7295C44.1368 23.5037 43.6655 23.3577 43.1211 23.2913C42.5767 23.2116 41.9991 23.1718 41.3882 23.1718H36.15L33.4611 35.8193H37.7633L38.9384 30.3022H39.0725L45.8769 42.0684H6.38739L26.1322 7.92592L33.394 20.483H37.6505L28.2604 4.24577L26.1322 0.565613ZM41.0098 28.6889C40.7708 28.9146 40.4787 29.0275 40.1335 29.0275H39.1973L40.1932 24.5262H41.0895C41.4878 24.5262 41.7468 24.6523 41.8663 24.9046C41.9858 25.1436 42.0455 25.4357 42.0455 25.7809C42.0455 26.0598 42.0123 26.3917 41.9459 26.7768C41.8795 27.1486 41.7667 27.5005 41.6073 27.8324C41.4613 28.1644 41.2621 28.4499 41.0098 28.6889Z" fill="#11171A"/>
</svg>
