<svg width="79" height="60" viewBox="0 0 79 60" fill="none" xmlns="http://www.w3.org/2000/svg">
<path d="M44.1622 46.4543H38.0257L37.6585 42.2846H32.807L30.945 46.4543H28.4012L36.1375 29.8018H42.3527L44.1622 46.4543ZM33.6724 40.3702H37.4749L36.8718 33.2372L33.6724 40.3702Z" fill="white"/>
<path d="M75.0815 31.7948H70.8594L67.7387 46.4543H62.0742L65.1949 31.7948H61.0252L61.4972 29.8018H75.5274L75.0815 31.7948Z" fill="white"/>
<path fill-rule="evenodd" clip-rule="evenodd" d="M34.4073 0L31.6051 4.84554L2.80567 54.6454L0 59.4969H5.60439H63.2103H68.8147L66.009 54.6454L56.7083 38.5627C58.0176 38.1085 58.9581 37.4484 59.5296 36.5825C60.1066 35.7083 60.395 34.7555 60.395 33.724C60.395 32.8848 60.2377 32.2117 59.923 31.7047C59.6083 31.1802 59.18 30.7781 58.638 30.4984C58.1135 30.2011 57.4928 30.0088 56.776 29.9214C56.0592 29.8165 55.2987 29.7641 54.4945 29.7641H47.5975L44.0571 46.4167H49.7216L51.2689 39.1525H51.445L60.4046 54.6454H8.41006L34.4073 9.69107L43.9686 26.2243H49.5729L37.2095 4.84554L34.4073 0ZM53.9962 37.0283C53.6815 37.3255 53.2969 37.4741 52.8424 37.4741H51.6098L52.921 31.5473H54.1011C54.6256 31.5473 54.9666 31.7134 55.1239 32.0456C55.2812 32.3603 55.3599 32.7449 55.3599 33.1995C55.3599 33.5666 55.3162 34.0037 55.2288 34.5107C55.1414 35.0002 54.9928 35.4635 54.783 35.9006C54.5907 36.3377 54.3284 36.7136 53.9962 37.0283Z" fill="white"/>
<path d="M79 44.1724C79 44.5746 78.9126 44.933 78.7377 45.2477C78.5804 45.5623 78.3618 45.8246 78.0821 46.0344C77.8199 46.2442 77.5139 46.4015 77.1643 46.5064C76.8146 46.6288 76.4475 46.69 76.0628 46.69C75.3985 46.69 74.8303 46.5152 74.3582 46.1655C73.9037 45.7984 73.6764 45.2302 73.6764 44.4609C73.6764 44.0588 73.7551 43.7004 73.9124 43.3857C74.0698 43.071 74.2796 42.8088 74.5418 42.599C74.804 42.3892 75.1013 42.2318 75.4334 42.1269C75.7831 42.0045 76.1415 41.9434 76.5086 41.9434C77.2254 41.9434 77.8199 42.1269 78.2919 42.4941C78.764 42.8437 79 43.4032 79 44.1724Z" fill="white"/>
</svg>
